<?xml version="1.0" encoding="utf-8"?>
<!-- Generator: Adobe Illustrator 18.1.1, SVG Export Plug-In . SVG Version: 6.00 Build 0)  -->
<!DOCTYPE svg PUBLIC "-//W3C//DTD SVG 1.1//EN" "http://www.w3.org/Graphics/SVG/1.1/DTD/svg11.dtd">
<svg version="1.1" id="Layer_1" xmlns="http://www.w3.org/2000/svg" xmlns:xlink="http://www.w3.org/1999/xlink" x="0px" y="0px"
	 width="30px" height="30px" viewBox="0 0 30 30" enable-background="new 0 0 30 30" xml:space="preserve">
<path d="M28.7,0.2C28,0.1,27.3,0.4,27,1l-5.3,10.6L16.3,1c-0.3-0.5-0.8-0.8-1.3-0.8S13.9,0.5,13.7,1L8.3,11.6L3,1
	C2.7,0.4,2,0.1,1.3,0.2C0.7,0.4,0.2,1,0.2,1.7v26.7c0,0.8,0.7,1.5,1.5,1.5h26.7c0.8,0,1.5-0.7,1.5-1.5V1.7C29.8,1,29.3,0.4,28.7,0.2
	z M3.2,26.8V8l9.4,18.8H3.2z M10,15l5-10l5,10l-5,10L10,15z M26.8,26.8h-9.4L26.8,8V26.8z"/>
</svg>
